Coordinates
version=1
nRows=8
nColumns=40
inDegrees=yes

Units are S.I. units (second, meters, Newtons, ...)
Angles are in degrees.

endheader
time	pelvis_tilt	pelvis_list	pelvis_rotation	pelvis_tx	pelvis_ty	pelvis_tz	hip_flexion_r	hip_adduction_r	hip_rotation_r	knee_angle_r	knee_angle_r_beta	ankle_angle_r	subtalar_angle_r	mtp_angle_r	hip_flexion_l	hip_adduction_l	hip_rotation_l	knee_angle_l	knee_angle_l_beta	ankle_angle_l	subtalar_angle_l	mtp_angle_l	lumbar_extension	lumbar_bending	lumbar_rotation	arm_flex_r	arm_add_r	arm_rot_r	elbow_flex_r	pro_sup_r	wrist_flex_r	wrist_dev_r	arm_flex_l	arm_add_l	arm_rot_l	elbow_flex_l	pro_sup_l	wrist_flex_l	wrist_dev_l
     45.23014286	     -8.46511466	     -4.25719828	      3.35597294	      1.02694604	      0.92738517	      0.47283440	     13.74432062	      2.74880195	    -14.62292997	     16.02160815	     16.02160815	     12.91640364	     -2.61929142	      1.58626375	     40.24557026	     -8.52012638	      5.61482948	     61.48170184	     61.48170184	      9.00156884	    -18.91324481	     15.09110454	    -12.13563273	      1.77787485	      1.03936957	     35.11079099	    -24.95095358	     10.26259624	     95.51420854	     44.35502626	      0.00000000	      0.00000000	     -4.76386780	     -6.74773498	     -7.42272867	     33.49799663	     46.56293312	      0.00000000	      0.00000000
     45.24278571	     -8.53595867	     -4.07494805	      3.58616630	      1.02637017	      0.92744712	      0.47275543	     13.06354140	      2.64538847	    -14.58531899	     15.55969682	     15.55969682	     13.20909504	     -2.63692704	      1.55955251	     40.86810694	     -8.04809324	      5.44044852	     58.10934148	     58.10934148	      9.63445266	    -18.90496081	     15.40999548	    -12.12402942	      1.58179627	      1.07416974	     36.43056678	    -24.38854431	     10.04841342	     96.81576946	     44.33636165	      0.00000000	      0.00000000	     -5.27767448	     -6.45098221	     -7.56306371	     33.17398884	     46.56469990	      0.00000000	      0.00000000
     45.25542857	     -8.72344296	     -3.86755310	      3.81651103	      1.02579359	      0.92715212	      0.47242118	     12.55168753	      2.47703327	    -14.54548085	     15.19742982	     15.19742982	     13.56655325	     -2.69574054	      1.47973348	     41.38507154	     -7.46919918	      5.33776619	     54.38191200	     54.38191200	     10.09530553	    -18.74033324	     15.65459682	    -11.90098416	      1.40344057	      1.32015043	     37.71473397	    -24.03827838	      9.83167295	     97.76873542	     44.32332569	      0.00000000	      0.00000000	     -5.66144611	     -6.15860828	     -7.61029710	     32.97921699	     46.55987184	      0.00000000	      0.00000000
     45.26807143	     -8.70697553	     -3.65028599	      4.06016612	      1.02552837	      0.92704134	      0.47191963	     11.79328633	      2.30243126	    -14.56226158	     14.83492108	     14.83492108	     13.94333020	     -2.68456663	      1.38066829	     41.38365397	     -6.79993418	      5.43076691	     50.29642107	     50.29642107	     10.46644365	    -18.51166911	     15.77616083	    -11.96440498	      1.23996568	      1.23061772	     38.76759635	    -23.19612325	      9.72797438	     99.28788423	     44.29097585	      0.00000000	      0.00000000	     -6.08687941	     -6.00155214	     -7.76338941	     32.60338304	     46.56839463	      0.00000000	      0.00000000
     45.28071429	     -8.81345295	     -3.47913643	      4.28953476	      1.02528774	      0.92646525	      0.47129950	     11.23339021	      2.14247767	    -14.58703591	     14.59552033	     14.59552033	     14.35874730	     -2.70408984	      1.23050514	     41.36516117	     -6.17237315	      5.60782430	     46.11035894	     46.11035894	     10.82394892	    -17.93128268	     15.80306530	    -11.84759229	      1.10567185	      1.35107266	     39.75507277	    -22.59167010	      9.61142487	    100.42244858	     44.26920448	      0.00000000	      0.00000000	     -6.33429062	     -5.77021658	     -7.87513476	     32.36951499	     46.57526785	      0.00000000	      0.00000000
     45.29335714	     -8.79623765	     -3.35139240	      4.51107152	      1.02540764	      0.92587779	      0.47052236	     10.53886343	      1.98944986	    -14.83827669	     14.41253048	     14.41253048	     14.76090882	     -2.39815214	      0.80530086	     40.84406072	     -5.65011967	      5.79057068	     41.46826362	     41.46826362	      9.84495222	    -17.37625983	     12.45221881	    -11.87838274	      1.08222840	      1.64513930	     40.19643805	    -21.97495205	      8.96273181	    102.58971533	     44.28545358	      0.00000000	      0.00000000	     -6.16937846	     -5.33390025	     -9.28388894	     31.64315245	     46.72162023	      0.00000000	      0.00000000
     45.30600000	     -8.83009513	     -3.23522085	      4.65692222	      1.02561324	      0.92502206	      0.46976721	      9.97623115	      1.87934152	    -14.76128483	     14.36473961	     14.36473961	     15.21984517	     -2.54540481	      0.63686396	     40.41147507	     -5.18464724	      5.97455734	     37.24822787	     37.24822787	     10.28294983	    -16.08320406	     12.71187602	    -11.77864498	      1.04130904	      1.77379310	     40.95024843	    -21.25912768	      9.05171197	    103.30375925	     44.27033434	      0.00000000	      0.00000000	     -6.33124798	     -5.22592523	     -9.33332102	     31.48947371	     46.71907457	      0.00000000	      0.00000000
     45.31864286	     -8.82823203	     -3.13838130	      4.77491616	      1.02604417	      0.92404209	      0.46896532	      9.38550869	      1.78051360	    -14.73403326	     14.36851704	     14.36851704	     15.70293188	     -2.62092254	      0.44165245	     39.83391892	     -4.81779116	      6.03858183	     33.19141949	     33.19141949	     10.65813930	    -14.50315992	     12.90784419	    -11.71563194	      1.02283003	      1.87430628	     41.59302466	    -20.42592285	      9.17455243	    104.07741685	     44.25138550	      0.00000000	      0.00000000	     -6.44679070	     -5.13643268	     -9.38112746	     31.36834237	     46.71765154	      0.00000000	      0.00000000
